<svg width="115" height="97" viewBox="0 0 115 97" fill="none" xmlns="http://www.w3.org/2000/svg">
<g clip-path="url(#clip0_325_15901)">
<path d="M16.4906 33.7981C22.4611 16.3482 38.9615 4.62467 57.5253 4.62467C76.0891 4.62467 92.5919 16.3482 98.5624 33.7981L98.6107 33.9431H111.675V32.3798L106.241 31.7492C102.892 31.3577 102.175 29.8814 101.266 28.0089L101.034 27.5474C93.1815 10.815 76.0988 0.00244141 57.5132 0.00244141C38.9277 0.00244141 21.845 10.815 13.9947 27.5474L13.7724 28.0016C12.8663 29.8742 12.1414 31.3505 8.7998 31.7419L3.36572 32.3798V33.9503H16.4302L16.4906 33.7981Z" fill="white"/>
<path d="M98.5962 62.2611L98.5479 62.4061C92.575 79.856 76.0867 91.5771 57.5132 91.5771C38.9349 91.5771 22.4466 79.8488 16.4906 62.3964L16.4399 62.2515H3.36572V63.8196L8.79739 64.4526C12.1414 64.8441 12.8663 66.3228 13.77 68.1929L13.9898 68.6424C21.8401 85.3819 38.9228 96.1994 57.5084 96.2018C76.0891 96.2018 93.1718 85.3868 101.025 68.6569L101.247 68.2002C102.153 66.3325 102.868 64.8537 106.219 64.4647L111.656 63.8317V62.2635L98.5962 62.2611Z" fill="white"/>
<path d="M26.1532 41.4043H23.1934V54.7902H26.1532V41.4043Z" fill="white"/>
<path d="M16.6429 54.7877V41.4043H13.6806V51.3785L3.8128 41.4043H0V54.7877H2.96229V44.7459L12.9002 54.7877H16.6429Z" fill="white"/>
<path d="M82.9222 41.4043L74.5645 54.7877H78.1574L79.6433 52.3981H89.3904L90.8764 54.7877H94.4669L86.114 41.4043H82.9222ZM87.8609 49.8611H81.1704L84.5193 44.4826L87.8609 49.8611Z" fill="white"/>
<path d="M67.0548 52.0021C66.9703 52.0166 66.5933 52.0287 66.4435 52.0287H54.5291V54.788H66.6296C66.7311 54.788 67.4269 54.788 67.5961 54.7686C70.0654 54.5488 71.189 52.4926 71.189 50.678C71.189 48.8634 70.0099 46.8555 67.77 46.6356C67.4489 46.6036 67.1263 46.5891 66.8036 46.5922H58.8928C58.5982 46.5975 58.3037 46.5749 58.0133 46.5245C57.7598 46.456 57.5373 46.3029 57.3827 46.0907C57.228 45.8785 57.1504 45.6198 57.1628 45.3575C57.1619 45.0949 57.2466 44.8392 57.404 44.6291C57.5613 44.419 57.7829 44.2658 58.0351 44.1929C58.3071 44.1334 58.5861 44.1131 58.8638 44.1324H70.2829V41.4021H58.6851C58.2975 41.3955 57.91 41.4157 57.5253 41.4625C56.5778 41.5763 55.7066 42.0387 55.0813 42.7596C54.456 43.4804 54.1213 44.4082 54.1426 45.3623C54.1426 47.0198 55.1839 48.9528 57.4721 49.2838C57.8853 49.3292 58.3009 49.3478 58.7165 49.3394H66.4242C66.5692 49.3394 66.9074 49.3394 66.9823 49.3563C67.301 49.3943 67.5954 49.5456 67.8116 49.7828C68.0278 50.0199 68.1515 50.3269 68.16 50.6477C68.1685 50.9685 68.0613 51.2816 67.8579 51.5299C67.6545 51.7781 67.3686 51.9449 67.0524 51.9997" fill="white"/>
<path d="M44.8404 52.0021C44.7534 52.0166 44.3765 52.0287 44.2291 52.0287H32.3123V54.788H44.4151C44.5142 54.788 45.2125 54.788 45.3816 54.7687C47.851 54.5488 48.977 52.4926 48.977 50.678C48.977 48.8634 47.8051 46.8556 45.5677 46.6381C45.2465 46.6062 44.9239 46.5916 44.6012 46.5946H36.6784C36.3838 46.6001 36.0893 46.5775 35.7989 46.527C35.5452 46.4585 35.3224 46.3056 35.1673 46.0934C35.0122 45.8812 34.9342 45.6225 34.946 45.3599C34.9452 45.0971 35.0302 44.8412 35.1881 44.631C35.3459 44.4208 35.568 44.2679 35.8207 44.1953C36.0926 44.1359 36.3717 44.1155 36.6494 44.1349H48.0661V41.4046H36.4682C36.0807 41.3979 35.6931 41.418 35.3084 41.465C34.3612 41.5793 33.4903 42.0418 32.8651 42.7626C32.2399 43.4833 31.905 44.4108 31.9257 45.3648C31.9257 47.0223 32.9671 48.9553 35.2553 49.2863C35.6692 49.3317 36.0857 49.3503 36.502 49.3419H44.2074C44.3547 49.3419 44.6906 49.3419 44.7679 49.3588C45.0866 49.3967 45.3809 49.5481 45.5972 49.7852C45.8134 50.0223 45.9371 50.3294 45.9456 50.6502C45.9541 50.971 45.8468 51.2841 45.6435 51.5323C45.4401 51.7806 45.1542 51.9473 44.838 52.0021" fill="white"/>
<path d="M115 54.7877V41.4043H112.038V51.3785L102.17 41.4043H98.3569V54.7877H101.319V44.7459L111.257 54.7877H115Z" fill="white"/>
<path d="M108.23 87.9382C108.726 87.9463 109.21 88.1012 109.619 88.3834C110.027 88.6655 110.344 89.0624 110.528 89.5239C110.711 89.9854 110.755 90.4911 110.652 90.9771C110.549 91.4631 110.304 91.9078 109.949 92.2553C109.594 92.6027 109.144 92.8373 108.656 92.9295C108.168 93.0217 107.663 92.9674 107.206 92.7735C106.748 92.5796 106.359 92.2547 106.086 91.8397C105.812 91.4247 105.668 90.9382 105.671 90.4414C105.671 90.1078 105.737 89.7776 105.866 89.47C105.995 89.1625 106.184 88.8839 106.423 88.6507C106.661 88.4174 106.944 88.2342 107.254 88.1118C107.565 87.9895 107.896 87.9304 108.23 87.9382ZM108.23 92.4783C108.492 92.4784 108.752 92.4257 108.993 92.3232C109.235 92.2208 109.453 92.0707 109.636 91.8819C109.818 91.6931 109.96 91.4695 110.054 91.2245C110.148 90.9795 110.191 90.7181 110.182 90.4559C110.17 90.0702 110.045 89.6966 109.822 89.3818C109.599 89.067 109.288 88.825 108.928 88.686C108.568 88.547 108.175 88.5173 107.798 88.6005C107.421 88.6836 107.077 88.876 106.809 89.1536C106.541 89.4312 106.361 89.7817 106.291 90.1612C106.222 90.5406 106.265 90.9323 106.417 91.2871C106.568 91.6419 106.821 91.9441 107.144 92.156C107.466 92.3679 107.844 92.48 108.23 92.4783ZM107.263 91.7534V89.2188C107.572 89.1612 107.885 89.1329 108.198 89.1342C108.653 89.1342 109.312 89.2188 109.312 89.8784C109.303 90.0211 109.247 90.1567 109.153 90.2639C109.058 90.3711 108.931 90.4438 108.79 90.4704V90.5114C109.032 90.5936 109.162 90.799 109.23 91.13C109.263 91.3494 109.328 91.5627 109.423 91.763H108.846C108.749 91.5632 108.684 91.3497 108.653 91.13C108.556 90.7313 108.336 90.7313 107.814 90.7313V91.763L107.263 91.7534ZM107.826 90.323C108.254 90.323 108.723 90.323 108.723 89.9364C108.723 89.6948 108.556 89.5377 108.157 89.5377C108.046 89.5347 107.935 89.5444 107.826 89.5667V90.323Z" fill="white"/>
</g>
<defs>
<clipPath id="clip0_325_15901">
<rect width="115" height="96.2018" fill="white"/>
</clipPath>
</defs>
</svg>
