<?xml version="1.0"?><svg xmlns="http://www.w3.org/2000/svg"  viewBox="0 0 24 24" width="24px" height="24px">    <path d="M 12 2 C 6.477 2 2 6.477 2 12 C 2 17.523 6.477 22 12 22 C 17.523 22 22 17.523 22 12 C 22 6.477 17.523 2 12 2 z M 12 4 C 16.418 4 20 7.582 20 12 C 20 16.418 16.418 20 12 20 C 11.264382 20 10.555494 19.892969 9.8789062 19.707031 C 10.09172 19.278284 10.282622 18.826454 10.386719 18.425781 C 10.501719 17.985781 10.972656 16.191406 10.972656 16.191406 C 11.278656 16.775406 12.173 17.271484 13.125 17.271484 C 15.958 17.271484 18 14.665734 18 11.427734 C 18 8.3227344 15.467031 6 12.207031 6 C 8.1520313 6 6 8.7215469 6 11.685547 C 6 13.063547 6.73325 14.779172 7.90625 15.326172 C 8.08425 15.409172 8.1797031 15.373172 8.2207031 15.201172 C 8.2527031 15.070172 8.4114219 14.431766 8.4824219 14.134766 C 8.5054219 14.040766 8.4949687 13.958234 8.4179688 13.865234 C 8.0299688 13.394234 7.71875 12.529656 7.71875 11.722656 C 7.71875 9.6496562 9.2879375 7.6445312 11.960938 7.6445312 C 14.268937 7.6445313 15.884766 9.2177969 15.884766 11.466797 C 15.884766 14.007797 14.601641 15.767578 12.931641 15.767578 C 12.009641 15.767578 11.317063 15.006312 11.539062 14.070312 C 11.804063 12.953313 12.318359 11.747406 12.318359 10.941406 C 12.318359 10.220406 11.932859 9.6191406 11.130859 9.6191406 C 10.187859 9.6191406 9.4296875 10.593391 9.4296875 11.900391 C 9.4296875 12.732391 9.7109375 13.294922 9.7109375 13.294922 C 9.7109375 13.294922 8.780375 17.231844 8.609375 17.964844 C 8.5246263 18.326587 8.4963381 18.755144 8.4941406 19.183594 C 5.8357722 17.883113 4 15.15864 4 12 C 4 7.582 7.582 4 12 4 z"/></svg>